# xmcd
#
# Track frame offsets:
#	150
#	14950
#	27860
#	43442
#	55325
#	66012
#	92137
#	107262
#	122472
#	134750
#	146965
#	162850
#
# Disc length: 2415 seconds
#
# Revision: 5
# Processed by: cddbd v1.5.2PL0 Copyright (c) Steve Scherf et al.
# Submitted via: EasyCDDAExtractor 16.0.6.1
#
DISCID=b1096d0c
DTITLE=Boxcar Willie - C-049 Two Sides Of Boxcar CD 1
DYEAR=1991
DGENRE=Country
TTITLE0=Freightline Fever
TTITLE1=Truckdrivin' Man
TTITLE2=Phantom 309
TTITLE3=Truck Drivin' Son-Of-A-Gun
TTITLE4=Six Days On The Road
TTITLE5=Teddy Bear
TTITLE6=Whiteline Fever
TTITLE7=Girl On A Billboard
TTITLE8=How Fast Them Trucks Will Go
TTITLE9=Truckers Prayer
TTITLE10=Forty Acres
TTITLE11=Convoy
EXTD=
EXTT0=
EXTT1=
EXTT2=
EXTT3=
EXTT4=
EXTT5=
EXTT6=
EXTT7=
EXTT8=
EXTT9=
EXTT10=
EXTT11=
PLAYORDER=
